<svg xmlns="http://www.w3.org/2000/svg" width="375" viewBox="0 0 375 375" height="375" version="1.0"><defs><clipPath id="a"><path d="M 256.453125 154.488281 L 323.335938 154.488281 L 323.335938 209.589844 L 256.453125 209.589844 Z M 256.453125 154.488281"/></clipPath><clipPath id="b"><path d="M 241.585938 180 L 262 180 L 262 183 L 241.585938 183 Z M 241.585938 180"/></clipPath></defs><path fill="#155263" d="M 277.332031 185.457031 C 270.945312 184.292969 265.914062 188.632812 263.484375 191.320312 C 263.195312 191.640625 263.222656 192.140625 263.542969 192.429688 C 263.867188 192.71875 264.363281 192.695312 264.660156 192.371094 C 266.867188 189.925781 271.417969 185.976562 277.046875 187.003906 C 279.972656 187.53125 281.097656 190.1875 281.183594 192.488281 C 281.199219 192.914062 281.546875 193.246094 281.96875 193.246094 C 281.976562 193.246094 281.992188 193.246094 282 193.246094 C 282.433594 193.230469 282.773438 192.871094 282.761719 192.4375 C 282.628906 188.777344 280.496094 186.035156 277.332031 185.457031"/><path fill="#155263" d="M 313.800781 197.46875 C 314.671875 197.46875 315.457031 197.808594 316.015625 198.410156 C 316.574219 199.015625 316.84375 199.835938 316.761719 200.710938 C 316.601562 202.574219 314.949219 204.085938 313.082031 204.085938 C 312.210938 204.085938 311.429688 203.753906 310.867188 203.148438 C 310.308594 202.539062 310.042969 201.722656 310.121094 200.847656 C 310.28125 198.988281 311.929688 197.46875 313.800781 197.46875 Z M 308.546875 200.710938 C 308.429688 202.03125 308.84375 203.277344 309.707031 204.210938 C 310.5625 205.144531 311.761719 205.664062 313.082031 205.664062 C 315.746094 205.664062 318.097656 203.5 318.328125 200.847656 C 318.445312 199.53125 318.039062 198.285156 317.175781 197.347656 C 316.3125 196.414062 315.121094 195.898438 313.800781 195.898438 C 311.136719 195.898438 308.777344 198.0625 308.546875 200.710938"/><g clip-path="url(#a)"><path fill="#155263" d="M 312.414062 193.558594 C 310.773438 193.558594 309.199219 195.15625 307.8125 196.558594 C 307.152344 197.214844 306.066406 198.324219 305.6875 198.335938 L 303.777344 198.335938 C 303.714844 198.335938 303.597656 198.324219 303.539062 198.273438 C 303.480469 198.207031 303.429688 198.039062 303.429688 197.773438 C 303.902344 197.238281 304.335938 196.628906 304.792969 195.980469 C 306.253906 193.910156 307.457031 192.203125 308.394531 190.867188 C 308.414062 190.851562 308.4375 190.835938 308.460938 190.816406 C 309.417969 190.011719 311.363281 189.082031 313.707031 189.082031 C 317.605469 189.082031 319.90625 190.390625 321.378906 193.535156 C 319.511719 193.542969 315.738281 193.558594 312.414062 193.558594 Z M 320.703125 200.710938 C 320.355469 204.738281 316.777344 208.015625 312.734375 208.015625 C 310.816406 208.015625 309.078125 207.277344 307.84375 205.929688 C 306.601562 204.578125 306.007812 202.777344 306.179688 200.847656 C 306.210938 200.484375 306.273438 200.125 306.355469 199.769531 C 307.152344 199.457031 307.964844 198.640625 308.929688 197.65625 C 310.050781 196.535156 311.433594 195.132812 312.414062 195.132812 C 314.460938 195.132812 316.667969 195.125 318.503906 195.117188 C 320.09375 196.484375 320.898438 198.511719 320.703125 200.710938 Z M 258.097656 198.332031 C 258.070312 198.257812 257.996094 198.019531 258.078125 197.46875 C 258.441406 194.917969 261.617188 189.015625 268.585938 183.9375 L 288.632812 183.9375 C 284.574219 187.496094 283.839844 191.207031 284.566406 193.484375 C 285.082031 195.125 286.382812 196.144531 287.957031 196.144531 L 296.816406 196.144531 C 300.316406 196.144531 301.265625 194.792969 302.855469 192.550781 C 303.859375 191.140625 304.226562 190.597656 304.765625 189.816406 C 304.996094 189.472656 305.273438 189.074219 305.644531 188.539062 C 307.066406 186.484375 307.445312 184.402344 306.804688 182.167969 C 306.304688 180.402344 304.453125 174.429688 303.65625 171.859375 C 304.277344 171.902344 304.765625 172.15625 304.765625 172.15625 C 304.953125 172.265625 305.1875 172.292969 305.398438 172.222656 C 305.804688 172.097656 307.863281 171.367188 307.996094 169.871094 C 308.058594 169.234375 307.792969 168.699219 307.429688 168.28125 C 307.546875 168.265625 307.675781 168.265625 307.828125 168.265625 C 308.515625 168.265625 308.816406 168.332031 308.9375 168.367188 C 308.945312 168.417969 308.960938 168.46875 308.96875 168.511719 C 309.148438 169.265625 308.996094 171.5 308.65625 172.46875 C 308.328125 172.546875 307.523438 172.476562 307.160156 172.445312 C 306.898438 172.417969 306.667969 172.402344 306.476562 172.402344 C 306.464844 172.402344 306.457031 172.402344 306.441406 172.402344 C 306.421875 172.402344 306.390625 172.410156 306.363281 172.410156 C 306.332031 172.417969 306.3125 172.417969 306.28125 172.425781 C 306.273438 172.433594 306.261719 172.433594 306.246094 172.433594 C 306.238281 172.4375 306.222656 172.445312 306.210938 172.445312 C 306.1875 172.460938 306.167969 172.46875 306.136719 172.484375 C 306.117188 172.496094 306.09375 172.503906 306.070312 172.519531 C 306.050781 172.535156 306.027344 172.546875 306.007812 172.5625 C 305.984375 172.578125 305.96875 172.589844 305.949219 172.605469 C 305.933594 172.628906 305.910156 172.640625 305.898438 172.664062 C 305.875 172.679688 305.859375 172.699219 305.855469 172.722656 C 305.832031 172.742188 305.824219 172.765625 305.808594 172.785156 C 305.789062 172.800781 305.78125 172.824219 305.773438 172.851562 C 305.757812 172.875 305.753906 172.894531 305.746094 172.917969 C 305.738281 172.945312 305.730469 172.96875 305.722656 172.988281 C 305.714844 173.019531 305.707031 173.039062 305.707031 173.0625 C 305.703125 173.089844 305.703125 173.117188 305.703125 173.148438 C 305.703125 173.164062 305.695312 173.167969 305.695312 173.183594 C 305.695312 173.199219 305.703125 173.207031 305.703125 173.21875 C 305.703125 173.25 305.703125 173.269531 305.707031 173.300781 C 305.707031 173.328125 305.714844 173.351562 305.722656 173.378906 C 305.722656 173.394531 305.722656 173.402344 305.730469 173.414062 C 306.128906 174.710938 306.679688 176.410156 307.226562 178.050781 C 307.972656 180.34375 308.75 182.714844 308.953125 183.539062 C 309.425781 185.429688 309.121094 187.046875 308.007812 188.660156 C 307.015625 190.101562 305.5 192.253906 303.511719 195.070312 C 303.007812 195.769531 302.59375 196.363281 302.144531 196.839844 C 302.109375 196.882812 302.066406 196.925781 302.027344 196.96875 C 301.171875 197.859375 300.207031 198.332031 298.453125 198.332031 Z M 272.96875 199.90625 C 273.011719 200.167969 273.027344 200.433594 273 200.710938 C 272.839844 202.574219 271.183594 204.085938 269.320312 204.085938 C 268.449219 204.085938 267.664062 203.753906 267.105469 203.148438 C 266.546875 202.539062 266.277344 201.722656 266.359375 200.847656 C 266.386719 200.527344 266.460938 200.210938 266.574219 199.90625 Z M 276.945312 200.710938 C 276.589844 204.738281 273.011719 208.015625 268.976562 208.015625 C 267.054688 208.015625 265.320312 207.277344 264.078125 205.929688 C 262.839844 204.578125 262.25 202.777344 262.417969 200.847656 C 262.445312 200.535156 262.503906 200.21875 262.570312 199.90625 L 264.929688 199.90625 C 264.863281 200.167969 264.8125 200.441406 264.78125 200.710938 C 264.675781 202.03125 265.082031 203.269531 265.945312 204.210938 C 266.808594 205.144531 268.003906 205.65625 269.320312 205.65625 C 271.984375 205.65625 274.339844 203.5 274.574219 200.847656 C 274.601562 200.527344 274.59375 200.21875 274.558594 199.90625 L 276.960938 199.90625 C 276.96875 200.175781 276.96875 200.441406 276.945312 200.710938 Z M 278.078125 179.164062 L 284.21875 179.164062 C 286.242188 180.097656 288.550781 180.84375 289.402344 181.03125 C 289.808594 181.117188 290.277344 181.210938 290.773438 181.296875 L 290.394531 182.363281 L 269.507812 182.363281 L 270.355469 179.96875 C 270.507812 179.546875 271.015625 179.164062 271.421875 179.164062 Z M 265.40625 168.128906 L 278.1875 168.128906 L 277.359375 177.597656 L 264.578125 177.597656 Z M 260.582031 164.296875 C 260.441406 164.042969 260.589844 163.59375 260.9375 163.234375 C 261.175781 162.988281 261.511719 162.777344 261.894531 162.703125 C 261.859375 162.835938 261.828125 162.972656 261.820312 163.117188 C 261.800781 163.6875 262.0625 164.246094 262.605469 164.78125 C 261.363281 164.859375 260.742188 164.601562 260.582031 164.296875 Z M 262.074219 159.804688 C 262.394531 159.183594 264.007812 158.757812 265.3125 159.421875 C 265.320312 159.429688 265.328125 159.429688 265.335938 159.429688 C 265.210938 159.832031 265.21875 160.347656 265.515625 160.984375 C 264.738281 160.949219 263.992188 161.070312 263.382812 161.308594 C 262.410156 160.765625 261.886719 160.171875 262.074219 159.804688 Z M 266.066406 157.519531 C 266.269531 157.085938 267.214844 156.644531 268.40625 156.644531 C 269.015625 156.652344 270.953125 156.824219 272.128906 158.632812 L 272.0625 158.683594 C 270.445312 157.691406 267.773438 157.402344 266.300781 158.257812 C 266.285156 158.242188 266.285156 158.234375 266.277344 158.222656 C 265.929688 157.808594 266.03125 157.59375 266.066406 157.519531 Z M 266.34375 162.699219 L 264.304688 164.128906 C 263.5625 163.644531 263.390625 163.289062 263.398438 163.183594 C 263.398438 163.117188 263.527344 162.957031 263.855469 162.804688 C 264.5 162.515625 265.480469 162.460938 266.34375 162.699219 Z M 266.902344 159.761719 C 267.359375 159.226562 269.21875 159.140625 270.617188 159.695312 L 267.933594 161.582031 C 266.960938 160.652344 266.707031 159.992188 266.902344 159.761719 Z M 267.671875 166.558594 L 265.34375 165.324219 L 272.605469 160.21875 L 273.679688 166.558594 Z M 297.585938 194.539062 C 297.566406 194.171875 297.457031 193.816406 297.261719 193.492188 C 296.695312 192.558594 295.519531 192.046875 294.613281 191.769531 C 296.054688 189.621094 299.472656 184.496094 300.257812 183.230469 C 301.296875 181.53125 302.035156 179.800781 299.664062 177.355469 C 299.011719 176.691406 297.3125 175.671875 295.476562 174.746094 C 297.660156 174.101562 300.796875 172.824219 302.128906 172.257812 C 302.914062 174.78125 304.789062 180.828125 305.289062 182.601562 C 305.957031 184.9375 305.070312 186.601562 304.34375 187.640625 C 303.972656 188.191406 303.699219 188.582031 303.457031 188.9375 C 302.929688 189.703125 302.558594 190.246094 301.566406 191.648438 C 300.214844 193.558594 299.621094 194.386719 297.585938 194.539062 Z M 290.425781 192.617188 C 292.238281 188.695312 296.0625 181.644531 296.101562 181.574219 C 296.222656 181.347656 296.222656 181.074219 296.105469 180.84375 C 295.992188 180.617188 295.765625 180.460938 295.511719 180.421875 C 295.46875 180.417969 291.671875 179.925781 289.742188 179.496094 C 287.363281 178.96875 282.621094 176.910156 282.238281 176.085938 C 282 175.511719 281.925781 174.796875 282.019531 173.980469 C 282.628906 173.363281 287.304688 173.515625 289.988281 174.238281 C 289.996094 174.238281 290.003906 174.238281 290.019531 174.246094 C 290.023438 174.246094 290.03125 174.253906 290.039062 174.253906 C 292.1875 174.679688 297.515625 177.414062 298.53125 178.449219 C 300.171875 180.132812 299.765625 181.007812 298.910156 182.40625 C 297.957031 183.960938 292.71875 191.777344 292.660156 191.859375 C 292.507812 192.082031 292.484375 192.363281 292.601562 192.617188 C 292.710938 192.863281 292.941406 193.035156 293.210938 193.074219 C 293.90625 193.160156 295.484375 193.585938 295.910156 194.292969 C 295.953125 194.367188 295.992188 194.453125 296.003906 194.570312 L 289.960938 194.570312 C 289.972656 194.144531 290.039062 193.464844 290.425781 192.617188 Z M 291.222656 183.886719 C 291.527344 183.785156 291.738281 183.511719 291.757812 183.1875 C 291.773438 183.148438 291.796875 183.121094 291.808594 183.078125 L 292.355469 181.558594 C 293.023438 181.660156 293.667969 181.753906 294.175781 181.828125 C 293.042969 183.929688 290.417969 188.886719 289 191.964844 C 288.472656 193.101562 288.398438 194.027344 288.390625 194.570312 L 287.957031 194.570312 C 287.070312 194.570312 286.382812 194.003906 286.070312 193.015625 C 285.359375 190.785156 286.695312 187.121094 291.222656 183.886719 Z M 287.042969 165.777344 C 291.179688 162.03125 296.722656 160.078125 301.773438 160.542969 C 302.234375 160.628906 302.5 161.164062 302.601562 161.402344 C 302.972656 162.300781 302.878906 163.441406 302.378906 164.050781 C 301.214844 165.460938 297.542969 168.46875 296.550781 169.191406 L 295.46875 169.410156 C 295.046875 169.488281 294.765625 169.902344 294.851562 170.328125 C 294.9375 170.753906 295.34375 171.027344 295.773438 170.949219 L 305.824219 168.976562 C 306.078125 169.132812 306.457031 169.4375 306.425781 169.742188 C 306.40625 169.972656 305.832031 170.371094 305.1875 170.632812 C 304.589844 170.386719 303.320312 170.015625 302.023438 170.59375 C 300.179688 171.417969 294.96875 173.472656 293.625 173.566406 C 293.175781 173.597656 292.746094 173.464844 292.457031 173.214844 C 292.171875 172.96875 292.019531 172.605469 292 172.136719 C 291.941406 171.222656 294.4375 166.796875 296.714844 164.890625 C 297.050781 164.605469 297.09375 164.113281 296.8125 163.78125 C 296.535156 163.449219 296.035156 163.40625 295.707031 163.679688 C 293.34375 165.671875 290.328125 170.539062 290.425781 172.230469 C 290.429688 172.410156 290.460938 172.578125 290.488281 172.742188 C 290.453125 172.734375 290.417969 172.730469 290.378906 172.722656 C 289.148438 172.394531 284.945312 171.707031 282.449219 172.199219 C 283.144531 170.242188 284.632812 167.960938 287.042969 165.777344 Z M 308.96875 156.117188 C 311.167969 156.425781 311.429688 158.667969 311.457031 159.117188 C 311.472656 159.371094 311.582031 159.601562 311.753906 159.832031 C 310.40625 159.710938 308.65625 159.558594 307.84375 159.558594 C 307.335938 159.558594 306.8125 159.820312 306.304688 160.066406 C 306.035156 160.203125 305.585938 160.417969 305.425781 160.417969 C 304.84375 160.417969 304.125 160.28125 303.75 160.203125 C 303.765625 160.167969 303.769531 160.128906 303.785156 160.085938 C 304.476562 157.246094 306.414062 155.761719 308.96875 156.117188 Z M 307.703125 163.660156 C 306.972656 163.746094 306.601562 163.558594 306.238281 163.371094 C 306.027344 163.261719 305.816406 163.152344 305.550781 163.109375 C 305.433594 163.09375 305.164062 163.050781 304.328125 163.339844 C 304.410156 162.878906 304.425781 162.386719 304.351562 161.902344 C 304.699219 161.953125 305.078125 161.988281 305.425781 161.988281 C 305.949219 161.988281 306.476562 161.730469 307 161.484375 C 307.253906 161.351562 307.699219 161.136719 307.84375 161.136719 C 308.285156 161.136719 309.0625 161.1875 309.898438 161.25 C 309.417969 162.503906 308.488281 163.566406 307.703125 163.660156 Z M 323.285156 194.042969 C 321.617188 189.519531 318.664062 187.511719 313.707031 187.511719 C 312.363281 187.511719 311.144531 187.765625 310.101562 188.140625 C 310.796875 186.585938 310.917969 184.945312 310.476562 183.164062 C 310.257812 182.28125 309.503906 179.988281 308.714844 177.566406 C 308.320312 176.367188 307.921875 175.128906 307.582031 174.058594 C 307.769531 174.066406 307.972656 174.082031 308.167969 174.082031 C 308.988281 174.082031 309.75 173.914062 310.050781 173.21875 C 310.542969 172.078125 310.78125 169.328125 310.5 168.144531 L 310.484375 168.078125 C 310.265625 166.929688 309.265625 166.695312 307.820312 166.695312 C 306.921875 166.695312 306.375 166.871094 305.671875 167.40625 L 299.875 168.542969 C 301.070312 167.535156 302.371094 166.378906 303.191406 165.503906 C 303.203125 165.496094 303.21875 165.496094 303.242188 165.480469 C 304.082031 165.097656 305.019531 164.738281 305.332031 164.679688 C 305.390625 164.699219 305.460938 164.738281 305.519531 164.765625 C 305.957031 164.992188 306.679688 165.367188 307.886719 165.222656 C 309.578125 165.019531 310.964844 163.167969 311.515625 161.390625 C 312.523438 161.484375 313.328125 161.570312 313.351562 161.570312 C 313.367188 161.570312 313.371094 161.570312 313.386719 161.570312 C 313.417969 161.578125 313.445312 161.570312 313.480469 161.570312 C 313.503906 161.570312 313.519531 161.570312 313.539062 161.5625 C 313.570312 161.5625 313.605469 161.554688 313.632812 161.546875 C 313.65625 161.539062 313.671875 161.535156 313.683594 161.535156 C 313.722656 161.519531 313.75 161.511719 313.773438 161.496094 C 313.792969 161.484375 313.808594 161.476562 313.832031 161.46875 C 313.851562 161.453125 313.882812 161.4375 313.902344 161.417969 C 313.917969 161.402344 313.9375 161.394531 313.953125 161.382812 C 313.976562 161.359375 313.988281 161.339844 314.011719 161.324219 C 314.027344 161.300781 314.039062 161.289062 314.0625 161.265625 C 314.078125 161.242188 314.089844 161.222656 314.105469 161.199219 C 314.113281 161.179688 314.128906 161.15625 314.136719 161.136719 C 314.148438 161.113281 314.15625 161.09375 314.171875 161.070312 C 314.179688 161.042969 314.1875 161.011719 314.191406 160.984375 C 314.199219 160.976562 314.199219 160.960938 314.207031 160.953125 C 314.207031 160.941406 314.207031 160.925781 314.207031 160.917969 C 314.214844 160.902344 314.222656 160.890625 314.222656 160.875 C 314.222656 160.851562 314.222656 160.839844 314.222656 160.824219 C 314.25 160.316406 313.875 159.890625 313.429688 159.398438 C 313.308594 159.253906 313.105469 159.03125 313.023438 158.90625 C 312.863281 157.105469 311.785156 154.929688 309.183594 154.5625 C 306.011719 154.121094 303.488281 155.820312 302.449219 159.03125 C 302.304688 159.007812 302.167969 159.007812 302.027344 158.996094 C 301.976562 158.988281 301.925781 158.972656 301.882812 158.964844 C 301.824219 158.957031 301.773438 158.957031 301.722656 158.964844 C 296.296875 158.539062 290.386719 160.628906 285.984375 164.613281 C 280.878906 169.242188 279.710938 174.117188 280.777344 176.691406 C 280.902344 176.988281 281.171875 177.292969 281.539062 177.597656 L 278.941406 177.597656 L 279.835938 167.414062 C 279.855469 167.195312 279.777344 166.980469 279.632812 166.8125 C 279.480469 166.652344 279.269531 166.558594 279.050781 166.558594 L 275.277344 166.558594 L 273.972656 158.8125 C 273.957031 158.75 273.933594 158.683594 273.914062 158.617188 C 272.910156 156.421875 270.859375 155.097656 268.417969 155.074219 C 266.664062 155.0625 265.152344 155.777344 264.636719 156.855469 C 264.558594 157.019531 264.476562 157.265625 264.449219 157.554688 C 262.867188 157.359375 261.269531 157.9375 260.675781 159.089844 C 260.507812 159.414062 260.183594 160.3125 260.957031 161.34375 C 260.539062 161.527344 260.136719 161.792969 259.796875 162.148438 C 258.957031 163.023438 258.714844 164.160156 259.1875 165.039062 C 259.621094 165.851562 260.761719 166.695312 263.707031 166.242188 L 264.414062 166.609375 C 264.136719 166.710938 263.933594 166.964844 263.90625 167.277344 L 262.933594 178.3125 C 262.917969 178.527344 262.992188 178.746094 263.136719 178.910156 C 263.289062 179.070312 263.5 179.164062 263.714844 179.164062 L 269 179.164062 C 268.957031 179.257812 268.914062 179.347656 268.875 179.445312 L 267.824219 182.390625 C 267.800781 182.449219 267.789062 182.511719 267.789062 182.570312 C 259.644531 188.464844 255.71875 196.09375 256.589844 198.777344 C 256.8125 199.488281 257.378906 199.90625 258.097656 199.90625 L 260.957031 199.90625 C 260.90625 200.175781 260.871094 200.449219 260.847656 200.710938 C 260.640625 203.082031 261.378906 205.316406 262.917969 206.996094 C 264.457031 208.664062 266.613281 209.589844 268.976562 209.589844 C 273.8125 209.589844 278.09375 205.671875 278.515625 200.847656 C 278.542969 200.535156 278.550781 200.21875 278.542969 199.90625 L 298.453125 199.90625 C 300.070312 199.90625 301.210938 199.546875 302.117188 198.945312 C 302.1875 199.089844 302.277344 199.21875 302.378906 199.328125 C 302.726562 199.703125 303.21875 199.90625 303.777344 199.90625 L 304.714844 199.90625 C 304.671875 200.175781 304.628906 200.441406 304.605469 200.710938 C 304.402344 203.082031 305.136719 205.316406 306.679688 206.996094 C 308.21875 208.664062 310.367188 209.589844 312.734375 209.589844 C 317.574219 209.589844 321.855469 205.671875 322.277344 200.847656 C 322.464844 198.714844 321.886719 196.703125 320.660156 195.113281 C 321.820312 195.105469 322.554688 195.105469 322.554688 195.105469 C 322.816406 195.105469 323.046875 194.972656 323.199219 194.765625 C 323.34375 194.554688 323.382812 194.289062 323.285156 194.042969"/></g><path fill="#155263" d="M 251.589844 177.167969 L 259.375 177.167969 C 259.8125 177.167969 260.160156 176.820312 260.160156 176.386719 C 260.160156 175.953125 259.8125 175.601562 259.375 175.601562 L 251.589844 175.601562 C 251.152344 175.601562 250.796875 175.953125 250.796875 176.386719 C 250.796875 176.820312 251.152344 177.167969 251.589844 177.167969"/><g clip-path="url(#b)"><path fill="#155263" d="M 261.460938 181.761719 C 261.460938 181.328125 261.109375 180.972656 260.675781 180.972656 L 242.378906 180.972656 C 241.941406 180.972656 241.585938 181.328125 241.585938 181.761719 C 241.585938 182.195312 241.941406 182.542969 242.378906 182.542969 L 260.675781 182.542969 C 261.109375 182.542969 261.460938 182.195312 261.460938 181.761719"/></g><path fill="#155263" d="M 253.628906 186.484375 L 246.386719 186.484375 C 245.957031 186.484375 245.601562 186.839844 245.601562 187.273438 C 245.601562 187.707031 245.957031 188.0625 246.386719 188.0625 L 253.628906 188.0625 C 254.070312 188.0625 254.417969 187.707031 254.417969 187.273438 C 254.417969 186.839844 254.070312 186.484375 253.628906 186.484375"/><g fill="#155263"><g><g><path d="M 57.746094 -40.570312 C 56.941406 -40.570312 56.394531 -40.277344 56.027344 -39.433594 L 46.890625 -19.078125 L 36.765625 -40.570312 C 35.671875 -42.945312 33.734375 -42.90625 32.675781 -40.570312 L 22.878906 -19.113281 L 13.558594 -39.433594 C 13.195312 -40.277344 12.644531 -40.570312 11.839844 -40.570312 L 2.777344 -40.570312 C 1.644531 -40.570312 1.207031 -39.835938 1.71875 -38.777344 L 20.066406 -0.0742188 C 21.089844 2.191406 23.097656 2.230469 24.160156 -0.0742188 L 34.574219 -22.222656 L 34.902344 -22.222656 L 45.246094 -0.0742188 C 46.304688 2.230469 48.316406 2.191406 49.339844 -0.0742188 L 67.941406 -38.777344 C 68.453125 -39.835938 67.980469 -40.570312 66.882812 -40.570312 Z M 57.746094 -40.570312" transform="translate(51.462 201.585)"/></g></g></g><g fill="#155263"><g><g><path d="M 23.171875 0.878906 C 34.355469 0.878906 41.921875 -5.773438 41.921875 -17.140625 L 41.921875 -39.070312 C 41.921875 -40.058594 41.410156 -40.570312 40.421875 -40.570312 L 31.761719 -40.570312 C 30.773438 -40.570312 30.261719 -40.058594 30.261719 -39.070312 L 30.261719 -17.578125 C 30.261719 -13.15625 27.996094 -9.539062 23.171875 -9.539062 C 18.492188 -9.539062 16.082031 -12.792969 16.082031 -17.578125 L 16.082031 -39.070312 C 16.082031 -40.058594 15.570312 -40.570312 14.582031 -40.570312 L 5.921875 -40.570312 C 4.933594 -40.570312 4.421875 -40.058594 4.421875 -39.070312 L 4.421875 -17.140625 C 4.421875 -5.773438 11.988281 0.878906 23.171875 0.878906 Z M 23.171875 0.878906" transform="translate(121.188 201.585)"/></g></g></g><g fill="#155263"><g><g><path d="M 11.585938 -43.527344 C 15.386719 -43.527344 18.273438 -46.378906 18.273438 -50.21875 C 18.273438 -53.945312 15.386719 -56.90625 11.585938 -56.90625 C 7.859375 -56.90625 4.933594 -53.945312 4.933594 -50.21875 C 4.933594 -46.378906 7.859375 -43.527344 11.585938 -43.527344 Z M 3.546875 17.46875 C 11.839844 17.46875 17.507812 13.195312 17.507812 5.117188 L 17.507812 -39.070312 C 17.507812 -40.058594 16.957031 -40.570312 16.007812 -40.570312 L 7.308594 -40.570312 C 6.359375 -40.570312 5.8125 -40.058594 5.8125 -39.070312 L 5.8125 4.203125 C 5.8125 6.90625 4.3125 8.003906 2.082031 8.003906 C 1.351562 8.003906 0.4375 7.894531 -0.476562 7.636719 C -1.460938 7.382812 -2.121094 7.75 -2.375 8.660156 L -3.945312 14.800781 C -4.203125 15.679688 -3.875 16.410156 -2.925781 16.703125 C -0.621094 17.359375 1.535156 17.46875 3.546875 17.46875 Z M 3.546875 17.46875" transform="translate(167.598 201.585)"/></g></g></g><g fill="#155263"><g><g><path d="M 25.21875 0.878906 C 38.046875 0.878906 47.367188 -7.894531 47.367188 -20.285156 C 47.367188 -32.675781 38.046875 -41.445312 25.21875 -41.445312 C 12.535156 -41.445312 3.214844 -32.675781 3.214844 -20.285156 C 3.214844 -7.894531 12.535156 0.878906 25.21875 0.878906 Z M 25.21875 -9.246094 C 19.003906 -9.246094 14.839844 -14.035156 14.839844 -20.285156 C 14.839844 -26.570312 19.003906 -31.320312 25.21875 -31.320312 C 31.613281 -31.320312 35.742188 -26.570312 35.742188 -20.285156 C 35.742188 -14.035156 31.613281 -9.246094 25.21875 -9.246094 Z M 25.21875 -9.246094" transform="translate(190.255 201.585)"/></g></g></g><g fill="#155263"><g><g><path d="M 7.417969 -11.164062 C 5.945312 -11.164062 4.503906 -10.59375 3.484375 -9.550781 L 3.496094 -16.429688 C 3.496094 -16.726562 3.339844 -16.878906 3.042969 -16.878906 L 1.945312 -16.878906 C 1.660156 -16.878906 1.503906 -16.726562 1.503906 -16.429688 L 1.472656 -0.449219 C 1.472656 -0.152344 1.636719 0 1.921875 0 L 2.539062 0 C 2.8125 0 2.988281 -0.121094 3.03125 -0.40625 L 3.265625 -1.625 C 4.285156 -0.417969 5.824219 0.230469 7.417969 0.230469 C 10.558594 0.230469 13.066406 -2.328125 13.066406 -5.460938 C 13.066406 -8.605469 10.558594 -11.164062 7.417969 -11.164062 Z M 7.265625 -1.660156 C 5.175781 -1.660156 3.460938 -3.375 3.460938 -5.460938 C 3.460938 -7.550781 5.175781 -9.265625 7.265625 -9.265625 C 9.351562 -9.265625 11.066406 -7.550781 11.066406 -5.460938 C 11.066406 -3.375 9.351562 -1.660156 7.265625 -1.660156 Z M 7.265625 -1.660156" transform="translate(53.904 239.933)"/></g></g><g><g><path d="M 3.023438 0 C 3.320312 0 3.472656 -0.152344 3.472656 -0.449219 L 3.472656 -5.847656 C 3.472656 -8.097656 4.441406 -9.265625 5.957031 -9.265625 C 6.144531 -9.265625 6.363281 -9.242188 6.617188 -9.1875 C 6.890625 -9.132812 7.089844 -9.207031 7.152344 -9.496094 L 7.417969 -10.496094 C 7.496094 -10.757812 7.382812 -10.96875 7.121094 -11.03125 C 6.78125 -11.109375 6.460938 -11.164062 6.164062 -11.164062 C 5.011719 -11.164062 3.933594 -10.617188 3.265625 -9.296875 L 3.03125 -10.527344 C 2.976562 -10.8125 2.800781 -10.933594 2.539062 -10.933594 L 1.921875 -10.933594 C 1.625 -10.933594 1.472656 -10.769531 1.472656 -10.484375 L 1.472656 -0.449219 C 1.472656 -0.152344 1.636719 0 1.921875 0 Z M 3.023438 0" transform="translate(67.937 239.933)"/></g></g><g><g><path d="M 2.472656 -12.351562 C 3.265625 -12.351562 3.855469 -12.945312 3.855469 -13.746094 C 3.855469 -14.539062 3.265625 -15.152344 2.472656 -15.152344 C 1.660156 -15.152344 1.066406 -14.539062 1.066406 -13.746094 C 1.066406 -12.945312 1.660156 -12.351562 2.472656 -12.351562 Z M 3.023438 0 C 3.320312 0 3.472656 -0.152344 3.472656 -0.449219 L 3.472656 -10.484375 C 3.472656 -10.769531 3.320312 -10.933594 3.023438 -10.933594 L 1.921875 -10.933594 C 1.636719 -10.933594 1.472656 -10.769531 1.472656 -10.484375 L 1.472656 -0.449219 C 1.472656 -0.152344 1.636719 0 1.921875 0 Z M 3.023438 0" transform="translate(75.85 239.933)"/></g></g><g><g><path d="M 6.496094 -11.164062 C 5.328125 -11.164062 4.132812 -10.679688 3.199219 -9.660156 L 3.03125 -10.527344 C 2.988281 -10.8125 2.8125 -10.933594 2.539062 -10.933594 L 1.921875 -10.933594 C 1.636719 -10.933594 1.472656 -10.769531 1.472656 -10.484375 L 1.472656 -0.449219 C 1.472656 -0.152344 1.636719 0 1.921875 0 L 3.023438 0 C 3.320312 0 3.472656 -0.152344 3.472656 -0.449219 L 3.472656 -6.605469 C 3.472656 -8.375 4.726562 -9.273438 6.097656 -9.273438 C 7.539062 -9.273438 8.484375 -8.285156 8.484375 -6.734375 L 8.484375 -0.449219 C 8.484375 -0.152344 8.648438 0 8.933594 0 L 10.03125 0 C 10.328125 0 10.484375 -0.152344 10.484375 -0.449219 L 10.484375 -6.867188 C 10.484375 -9.265625 9.089844 -11.164062 6.496094 -11.164062 Z M 6.496094 -11.164062" transform="translate(80.806 239.933)"/></g></g><g><g><path d="M 11.382812 -10.933594 C 11.121094 -10.933594 10.945312 -10.8125 10.890625 -10.527344 L 10.660156 -9.308594 C 9.648438 -10.503906 8.121094 -11.164062 6.550781 -11.164062 C 3.429688 -11.164062 0.957031 -8.605469 0.957031 -5.460938 C 0.957031 -2.328125 3.429688 0.152344 6.550781 0.152344 C 8 0.152344 9.429688 -0.40625 10.441406 -1.539062 L 10.441406 -0.121094 C 10.441406 2.515625 8.800781 3.550781 6.945312 3.550781 C 5.363281 3.550781 4.078125 2.835938 3.242188 1.746094 C 3.066406 1.503906 2.878906 1.441406 2.636719 1.59375 L 1.933594 2.265625 C 1.691406 2.417969 1.625 2.625 1.78125 2.847656 C 2.957031 4.449219 4.8125 5.460938 6.988281 5.460938 C 9.976562 5.460938 12.460938 3.617188 12.460938 -0.144531 L 12.472656 -10.484375 C 12.472656 -10.769531 12.328125 -10.933594 12.03125 -10.933594 Z M 6.714844 -1.734375 C 4.648438 -1.734375 2.945312 -3.417969 2.945312 -5.503906 C 2.945312 -7.59375 4.648438 -9.265625 6.714844 -9.265625 C 8.769531 -9.265625 10.472656 -7.59375 10.472656 -5.503906 C 10.472656 -3.417969 8.769531 -1.734375 6.714844 -1.734375 Z M 6.714844 -1.734375" transform="translate(92.652 239.933)"/></g></g><g><g><path d="M 2.472656 -12.351562 C 3.265625 -12.351562 3.855469 -12.945312 3.855469 -13.746094 C 3.855469 -14.539062 3.265625 -15.152344 2.472656 -15.152344 C 1.660156 -15.152344 1.066406 -14.539062 1.066406 -13.746094 C 1.066406 -12.945312 1.660156 -12.351562 2.472656 -12.351562 Z M 3.023438 0 C 3.320312 0 3.472656 -0.152344 3.472656 -0.449219 L 3.472656 -10.484375 C 3.472656 -10.769531 3.320312 -10.933594 3.023438 -10.933594 L 1.921875 -10.933594 C 1.636719 -10.933594 1.472656 -10.769531 1.472656 -10.484375 L 1.472656 -0.449219 C 1.472656 -0.152344 1.636719 0 1.921875 0 Z M 3.023438 0" transform="translate(106.619 239.933)"/></g></g><g><g><path d="M 6.496094 -11.164062 C 5.328125 -11.164062 4.132812 -10.679688 3.199219 -9.660156 L 3.03125 -10.527344 C 2.988281 -10.8125 2.8125 -10.933594 2.539062 -10.933594 L 1.921875 -10.933594 C 1.636719 -10.933594 1.472656 -10.769531 1.472656 -10.484375 L 1.472656 -0.449219 C 1.472656 -0.152344 1.636719 0 1.921875 0 L 3.023438 0 C 3.320312 0 3.472656 -0.152344 3.472656 -0.449219 L 3.472656 -6.605469 C 3.472656 -8.375 4.726562 -9.273438 6.097656 -9.273438 C 7.539062 -9.273438 8.484375 -8.285156 8.484375 -6.734375 L 8.484375 -0.449219 C 8.484375 -0.152344 8.648438 0 8.933594 0 L 10.03125 0 C 10.328125 0 10.484375 -0.152344 10.484375 -0.449219 L 10.484375 -6.867188 C 10.484375 -9.265625 9.089844 -11.164062 6.496094 -11.164062 Z M 6.496094 -11.164062" transform="translate(111.575 239.933)"/></g></g><g><g><path d="M 11.382812 -10.933594 C 11.121094 -10.933594 10.945312 -10.8125 10.890625 -10.527344 L 10.660156 -9.308594 C 9.648438 -10.503906 8.121094 -11.164062 6.550781 -11.164062 C 3.429688 -11.164062 0.957031 -8.605469 0.957031 -5.460938 C 0.957031 -2.328125 3.429688 0.152344 6.550781 0.152344 C 8 0.152344 9.429688 -0.40625 10.441406 -1.539062 L 10.441406 -0.121094 C 10.441406 2.515625 8.800781 3.550781 6.945312 3.550781 C 5.363281 3.550781 4.078125 2.835938 3.242188 1.746094 C 3.066406 1.503906 2.878906 1.441406 2.636719 1.59375 L 1.933594 2.265625 C 1.691406 2.417969 1.625 2.625 1.78125 2.847656 C 2.957031 4.449219 4.8125 5.460938 6.988281 5.460938 C 9.976562 5.460938 12.460938 3.617188 12.460938 -0.144531 L 12.472656 -10.484375 C 12.472656 -10.769531 12.328125 -10.933594 12.03125 -10.933594 Z M 6.714844 -1.734375 C 4.648438 -1.734375 2.945312 -3.417969 2.945312 -5.503906 C 2.945312 -7.59375 4.648438 -9.265625 6.714844 -9.265625 C 8.769531 -9.265625 10.472656 -7.59375 10.472656 -5.503906 C 10.472656 -3.417969 8.769531 -1.734375 6.714844 -1.734375 Z M 6.714844 -1.734375" transform="translate(123.421 239.933)"/></g></g><g><g><path d="M 5.097656 0.230469 C 5.582031 0.230469 6.089844 0.1875 6.660156 -0.03125 C 6.933594 -0.132812 7.011719 -0.363281 6.902344 -0.625 L 6.648438 -1.441406 C 6.539062 -1.703125 6.351562 -1.800781 6.066406 -1.691406 C 5.769531 -1.59375 5.503906 -1.550781 5.296875 -1.550781 C 4.550781 -1.550781 4.097656 -2.042969 4.097656 -3.132812 L 4.097656 -9.1875 L 6.351562 -9.1875 C 6.648438 -9.1875 6.800781 -9.339844 6.800781 -9.636719 L 6.800781 -10.484375 C 6.800781 -10.769531 6.648438 -10.933594 6.351562 -10.933594 L 4.097656 -10.933594 L 4.097656 -14.253906 C 4.097656 -14.550781 3.945312 -14.703125 3.648438 -14.703125 L 2.550781 -14.703125 C 2.265625 -14.703125 2.097656 -14.550781 2.097656 -14.253906 L 2.097656 -10.933594 L 1.164062 -10.933594 C 0.878906 -10.933594 0.714844 -10.769531 0.714844 -10.484375 L 0.714844 -9.636719 C 0.714844 -9.339844 0.878906 -9.1875 1.164062 -9.1875 L 2.097656 -9.1875 L 2.097656 -2.726562 C 2.097656 -0.824219 3.375 0.230469 5.097656 0.230469 Z M 5.097656 0.230469" transform="translate(143.839 239.933)"/></g></g><g><g><path d="M 3.023438 0 C 3.320312 0 3.472656 -0.152344 3.472656 -0.449219 L 3.472656 -6.605469 C 3.472656 -8.375 4.726562 -9.273438 6.097656 -9.273438 C 7.539062 -9.273438 8.484375 -8.296875 8.484375 -6.734375 L 8.484375 -0.449219 C 8.484375 -0.152344 8.648438 0 8.933594 0 L 10.03125 0 C 10.328125 0 10.484375 -0.152344 10.484375 -0.449219 L 10.484375 -6.867188 C 10.484375 -9.265625 9.089844 -11.164062 6.496094 -11.164062 C 5.308594 -11.164062 4.199219 -10.679688 3.472656 -9.792969 L 3.472656 -16.429688 C 3.472656 -16.726562 3.320312 -16.878906 3.023438 -16.878906 L 1.921875 -16.878906 C 1.636719 -16.878906 1.472656 -16.726562 1.472656 -16.429688 L 1.472656 -0.449219 C 1.472656 -0.152344 1.636719 0 1.921875 0 Z M 3.023438 0" transform="translate(151.531 239.933)"/></g></g><g><g><path d="M 6.429688 -11.164062 C 3.394531 -11.164062 0.988281 -8.867188 0.988281 -5.460938 C 0.988281 -2.042969 3.460938 0.230469 6.472656 0.230469 C 8.328125 0.230469 10.054688 -0.703125 11.097656 -2.285156 C 11.265625 -2.539062 11.21875 -2.734375 10.976562 -2.867188 L 10.199219 -3.449219 C 9.96875 -3.582031 9.8125 -3.539062 9.636719 -3.308594 C 8.867188 -2.230469 7.691406 -1.648438 6.515625 -1.648438 C 4.648438 -1.648438 3.089844 -3.023438 3 -5.207031 L 11.363281 -5.207031 C 11.605469 -5.207031 11.8125 -5.265625 11.8125 -5.636719 C 11.8125 -8.867188 9.460938 -11.164062 6.429688 -11.164062 Z M 6.449219 -9.328125 C 7.890625 -9.328125 9.207031 -8.441406 9.625 -6.847656 L 3.175781 -6.847656 C 3.625 -8.449219 5.03125 -9.328125 6.449219 -9.328125 Z M 6.449219 -9.328125" transform="translate(163.377 239.933)"/></g></g><g><g><path d="M 13.242188 -11.164062 C 11.847656 -11.164062 10.449219 -10.527344 9.570312 -9.429688 C 8.914062 -10.484375 7.769531 -11.164062 6.394531 -11.164062 C 5.273438 -11.164062 4.121094 -10.703125 3.1875 -9.714844 L 3.03125 -10.527344 C 2.988281 -10.8125 2.8125 -10.933594 2.539062 -10.933594 L 1.921875 -10.933594 C 1.636719 -10.933594 1.472656 -10.769531 1.472656 -10.484375 L 1.472656 -0.449219 C 1.472656 -0.152344 1.636719 0 1.921875 0 L 3.023438 0 C 3.320312 0 3.472656 -0.152344 3.472656 -0.449219 L 3.472656 -6.835938 C 3.472656 -8.21875 4.660156 -9.285156 6.03125 -9.285156 C 7.460938 -9.285156 8.339844 -8.144531 8.339844 -6.769531 L 8.339844 -0.449219 C 8.339844 -0.152344 8.496094 0 8.792969 0 L 9.890625 0 C 10.175781 0 10.339844 -0.152344 10.339844 -0.449219 L 10.339844 -6.835938 C 10.339844 -8.21875 11.539062 -9.285156 12.914062 -9.285156 C 14.285156 -9.285156 15.199219 -8.144531 15.199219 -6.769531 L 15.199219 -0.449219 C 15.199219 -0.152344 15.351562 0 15.648438 0 L 16.746094 0 C 17.03125 0 17.199219 -0.152344 17.199219 -0.449219 L 17.199219 -6.933594 C 17.199219 -9.265625 15.636719 -11.164062 13.242188 -11.164062 Z M 13.242188 -11.164062" transform="translate(182.575 239.933)"/></g></g><g><g><path d="M 5.59375 -11.164062 C 4.429688 -11.164062 3.164062 -10.933594 1.933594 -10.515625 C 1.648438 -10.40625 1.558594 -10.230469 1.648438 -9.933594 L 1.902344 -9.109375 C 2 -8.835938 2.1875 -8.746094 2.472656 -8.847656 C 3.472656 -9.175781 4.496094 -9.40625 5.40625 -9.40625 C 6.835938 -9.40625 7.945312 -8.835938 7.945312 -7.199219 L 7.945312 -6.320312 C 7.066406 -6.503906 6.230469 -6.605469 5.429688 -6.605469 C 2.867188 -6.605469 0.957031 -5.441406 0.957031 -3.011719 C 0.957031 -0.734375 2.625 0.230469 4.558594 0.230469 C 5.800781 0.230469 7.253906 -0.175781 8.175781 -1.449219 L 8.375 -0.40625 C 8.429688 -0.121094 8.605469 0 8.867188 0 L 9.484375 0 C 9.78125 0 9.933594 -0.152344 9.933594 -0.449219 L 9.933594 -7.339844 C 9.933594 -10.089844 8.03125 -11.164062 5.59375 -11.164062 Z M 4.890625 -1.351562 C 3.824219 -1.351562 2.957031 -1.890625 2.957031 -3.078125 C 2.957031 -4.460938 4.164062 -5.011719 5.835938 -5.011719 C 6.484375 -5.011719 7.199219 -4.921875 7.945312 -4.769531 L 7.945312 -4.382812 C 7.945312 -2.144531 6.152344 -1.351562 4.890625 -1.351562 Z M 4.890625 -1.351562" transform="translate(201.136 239.933)"/></g></g><g><g><path d="M 3.023438 0 C 3.320312 0 3.472656 -0.152344 3.472656 -0.449219 L 3.472656 -5.847656 C 3.472656 -8.097656 4.441406 -9.265625 5.957031 -9.265625 C 6.144531 -9.265625 6.363281 -9.242188 6.617188 -9.1875 C 6.890625 -9.132812 7.089844 -9.207031 7.152344 -9.496094 L 7.417969 -10.496094 C 7.496094 -10.757812 7.382812 -10.96875 7.121094 -11.03125 C 6.78125 -11.109375 6.460938 -11.164062 6.164062 -11.164062 C 5.011719 -11.164062 3.933594 -10.617188 3.265625 -9.296875 L 3.03125 -10.527344 C 2.976562 -10.8125 2.800781 -10.933594 2.539062 -10.933594 L 1.921875 -10.933594 C 1.625 -10.933594 1.472656 -10.769531 1.472656 -10.484375 L 1.472656 -0.449219 C 1.472656 -0.152344 1.636719 0 1.921875 0 Z M 3.023438 0" transform="translate(212.477 239.933)"/></g></g><g><g><path d="M 3.023438 0 C 3.320312 0 3.472656 -0.152344 3.472656 -0.449219 L 3.472656 -5.746094 L 8.054688 -0.253906 C 8.207031 -0.078125 8.382812 0 8.617188 0 L 10.089844 0 C 10.460938 0 10.582031 -0.265625 10.339844 -0.558594 L 5.660156 -6.152344 L 9.824219 -10.363281 C 10.109375 -10.648438 9.988281 -10.933594 9.59375 -10.933594 L 8.03125 -10.933594 C 7.8125 -10.933594 7.648438 -10.855469 7.496094 -10.691406 L 3.472656 -6.472656 L 3.472656 -16.429688 C 3.472656 -16.726562 3.320312 -16.878906 3.023438 -16.878906 L 1.921875 -16.878906 C 1.636719 -16.878906 1.472656 -16.726562 1.472656 -16.429688 L 1.472656 -0.449219 C 1.472656 -0.152344 1.636719 0 1.921875 0 Z M 3.023438 0" transform="translate(220.389 239.933)"/></g></g><g><g><path d="M 6.429688 -11.164062 C 3.394531 -11.164062 0.988281 -8.867188 0.988281 -5.460938 C 0.988281 -2.042969 3.460938 0.230469 6.472656 0.230469 C 8.328125 0.230469 10.054688 -0.703125 11.097656 -2.285156 C 11.265625 -2.539062 11.21875 -2.734375 10.976562 -2.867188 L 10.199219 -3.449219 C 9.96875 -3.582031 9.8125 -3.539062 9.636719 -3.308594 C 8.867188 -2.230469 7.691406 -1.648438 6.515625 -1.648438 C 4.648438 -1.648438 3.089844 -3.023438 3 -5.207031 L 11.363281 -5.207031 C 11.605469 -5.207031 11.8125 -5.265625 11.8125 -5.636719 C 11.8125 -8.867188 9.460938 -11.164062 6.429688 -11.164062 Z M 6.449219 -9.328125 C 7.890625 -9.328125 9.207031 -8.441406 9.625 -6.847656 L 3.175781 -6.847656 C 3.625 -8.449219 5.03125 -9.328125 6.449219 -9.328125 Z M 6.449219 -9.328125" transform="translate(231.444 239.933)"/></g></g><g><g><path d="M 5.097656 0.230469 C 5.582031 0.230469 6.089844 0.1875 6.660156 -0.03125 C 6.933594 -0.132812 7.011719 -0.363281 6.902344 -0.625 L 6.648438 -1.441406 C 6.539062 -1.703125 6.351562 -1.800781 6.066406 -1.691406 C 5.769531 -1.59375 5.503906 -1.550781 5.296875 -1.550781 C 4.550781 -1.550781 4.097656 -2.042969 4.097656 -3.132812 L 4.097656 -9.1875 L 6.351562 -9.1875 C 6.648438 -9.1875 6.800781 -9.339844 6.800781 -9.636719 L 6.800781 -10.484375 C 6.800781 -10.769531 6.648438 -10.933594 6.351562 -10.933594 L 4.097656 -10.933594 L 4.097656 -14.253906 C 4.097656 -14.550781 3.945312 -14.703125 3.648438 -14.703125 L 2.550781 -14.703125 C 2.265625 -14.703125 2.097656 -14.550781 2.097656 -14.253906 L 2.097656 -10.933594 L 1.164062 -10.933594 C 0.878906 -10.933594 0.714844 -10.769531 0.714844 -10.484375 L 0.714844 -9.636719 C 0.714844 -9.339844 0.878906 -9.1875 1.164062 -9.1875 L 2.097656 -9.1875 L 2.097656 -2.726562 C 2.097656 -0.824219 3.375 0.230469 5.097656 0.230469 Z M 5.097656 0.230469" transform="translate(244.191 239.933)"/></g></g><g><g><path d="M 5.097656 0.230469 C 5.582031 0.230469 6.089844 0.1875 6.660156 -0.03125 C 6.933594 -0.132812 7.011719 -0.363281 6.902344 -0.625 L 6.648438 -1.441406 C 6.539062 -1.703125 6.351562 -1.800781 6.066406 -1.691406 C 5.769531 -1.59375 5.503906 -1.550781 5.296875 -1.550781 C 4.550781 -1.550781 4.097656 -2.042969 4.097656 -3.132812 L 4.097656 -9.1875 L 6.351562 -9.1875 C 6.648438 -9.1875 6.800781 -9.339844 6.800781 -9.636719 L 6.800781 -10.484375 C 6.800781 -10.769531 6.648438 -10.933594 6.351562 -10.933594 L 4.097656 -10.933594 L 4.097656 -14.253906 C 4.097656 -14.550781 3.945312 -14.703125 3.648438 -14.703125 L 2.550781 -14.703125 C 2.265625 -14.703125 2.097656 -14.550781 2.097656 -14.253906 L 2.097656 -10.933594 L 1.164062 -10.933594 C 0.878906 -10.933594 0.714844 -10.769531 0.714844 -10.484375 L 0.714844 -9.636719 C 0.714844 -9.339844 0.878906 -9.1875 1.164062 -9.1875 L 2.097656 -9.1875 L 2.097656 -2.726562 C 2.097656 -0.824219 3.375 0.230469 5.097656 0.230469 Z M 5.097656 0.230469" transform="translate(258.334 239.933)"/></g></g><g><g><path d="M 6.726562 0.230469 C 9.933594 0.230469 12.484375 -2.097656 12.484375 -5.460938 C 12.484375 -8.824219 9.933594 -11.164062 6.726562 -11.164062 C 3.515625 -11.164062 0.96875 -8.824219 0.96875 -5.460938 C 0.96875 -2.097656 3.515625 0.230469 6.726562 0.230469 Z M 6.726562 -1.660156 C 4.625 -1.660156 2.957031 -3.1875 2.957031 -5.460938 C 2.957031 -7.746094 4.625 -9.265625 6.726562 -9.265625 C 8.824219 -9.265625 10.496094 -7.746094 10.496094 -5.460938 C 10.496094 -3.1875 8.824219 -1.660156 6.726562 -1.660156 Z M 6.726562 -1.660156" transform="translate(266.027 239.933)"/></g></g><g><g><path d="M 9.671875 -10.933594 C 9.441406 -10.933594 9.265625 -10.855469 9.152344 -10.59375 L 6.054688 -3.273438 L 2.714844 -10.59375 C 2.617188 -10.8125 2.40625 -10.933594 2.175781 -10.933594 L 0.890625 -10.933594 C 0.527344 -10.933594 0.417969 -10.703125 0.550781 -10.382812 L 5.011719 -0.945312 L 2.449219 4.714844 C 2.308594 5.023438 2.441406 5.230469 2.78125 5.230469 L 3.976562 5.230469 C 4.207031 5.230469 4.40625 5.121094 4.503906 4.890625 L 11.308594 -10.40625 C 11.441406 -10.726562 11.308594 -10.933594 10.96875 -10.933594 Z M 9.671875 -10.933594" transform="translate(285.95 239.933)"/></g></g><g><g><path d="M 6.726562 0.230469 C 9.933594 0.230469 12.484375 -2.097656 12.484375 -5.460938 C 12.484375 -8.824219 9.933594 -11.164062 6.726562 -11.164062 C 3.515625 -11.164062 0.96875 -8.824219 0.96875 -5.460938 C 0.96875 -2.097656 3.515625 0.230469 6.726562 0.230469 Z M 6.726562 -1.660156 C 4.625 -1.660156 2.957031 -3.1875 2.957031 -5.460938 C 2.957031 -7.746094 4.625 -9.265625 6.726562 -9.265625 C 8.824219 -9.265625 10.496094 -7.746094 10.496094 -5.460938 C 10.496094 -3.1875 8.824219 -1.660156 6.726562 -1.660156 Z M 6.726562 -1.660156" transform="translate(297.829 239.933)"/></g></g><g><g><path d="M 5.78125 0.230469 C 8.285156 0.230469 10.242188 -1.296875 10.242188 -4.164062 L 10.242188 -10.484375 C 10.242188 -10.769531 10.089844 -10.933594 9.792969 -10.933594 L 8.703125 -10.933594 C 8.40625 -10.933594 8.253906 -10.769531 8.253906 -10.484375 L 8.253906 -4.199219 C 8.253906 -2.484375 7.199219 -1.679688 5.78125 -1.679688 C 4.394531 -1.679688 3.320312 -2.460938 3.320312 -4.199219 L 3.320312 -10.484375 C 3.320312 -10.769531 3.164062 -10.933594 2.867188 -10.933594 L 1.78125 -10.933594 C 1.484375 -10.933594 1.328125 -10.769531 1.328125 -10.484375 L 1.328125 -4.164062 C 1.328125 -1.296875 3.265625 0.230469 5.78125 0.230469 Z M 5.78125 0.230469" transform="translate(311.302 239.933)"/></g></g></g><g fill="#155263"><g><g><path d="M 4.019531 -2.820312 C 3.964844 -2.820312 3.929688 -2.800781 3.902344 -2.746094 L 3.300781 -1.460938 L 2.601562 -2.820312 C 2.519531 -2.976562 2.398438 -2.972656 2.324219 -2.820312 L 1.648438 -1.464844 L 1.03125 -2.746094 C 1.007812 -2.800781 0.96875 -2.820312 0.914062 -2.820312 L 0.179688 -2.820312 C 0.105469 -2.820312 0.0742188 -2.769531 0.109375 -2.699219 L 1.4375 -0.00390625 C 1.503906 0.140625 1.636719 0.144531 1.710938 -0.00390625 L 2.453125 -1.402344 L 2.476562 -1.402344 L 3.210938 -0.00390625 C 3.285156 0.144531 3.414062 0.140625 3.484375 -0.00390625 L 4.828125 -2.699219 C 4.867188 -2.769531 4.835938 -2.820312 4.761719 -2.820312 Z M 4.019531 -2.820312" transform="translate(269.031 173.998)"/></g></g></g></svg>